<?xml version="1.0" encoding="UTF-8"?>
<svg version="1.1" xmlns="http://www.w3.org/2000/svg" width="512" height="512">
<path d="M0 0 C0.80620641 -0.00226556 1.61241282 -0.00453111 2.44304973 -0.00686532 C5.12414215 -0.01315712 7.8051834 -0.01237907 10.48628235 -0.0115509 C12.4170844 -0.01454544 14.34788585 -0.01794865 16.27868652 -0.02172852 C21.51032698 -0.03054362 26.74195107 -0.03290561 31.97359824 -0.0335443 C35.24688432 -0.03425632 38.52016626 -0.03639355 41.79345131 -0.03904152 C53.2265461 -0.04828736 64.65962925 -0.05237744 76.09272766 -0.05158997 C86.72745019 -0.05098968 97.36212192 -0.0615339 107.9968316 -0.07733363 C117.14531812 -0.09043793 126.2937881 -0.09577264 135.44228393 -0.09513456 C140.89815262 -0.09488038 146.35397615 -0.09768701 151.80983543 -0.10831261 C156.94560457 -0.11804207 162.08128583 -0.11803971 167.21705818 -0.11079597 C169.09346013 -0.10975608 170.96986768 -0.11207736 172.84626007 -0.11815643 C193.61847207 -0.1810516 211.69741563 2.086807 227.6710968 16.63371277 C241.40468469 30.97157853 243.05913756 46.86454053 243.01264954 65.7071991 C243.01835786 67.79593266 243.0253239 69.88466311 243.03344727 71.97338867 C243.05134429 77.62642688 243.05021656 83.27930957 243.04450488 88.93236756 C243.04140752 93.66123492 243.0475117 98.39007264 243.05354363 103.11893576 C243.0675764 114.28086908 243.0660384 125.44272584 243.05464172 136.60466003 C243.04316632 148.0972274 243.05722945 159.58956124 243.0840382 171.08209783 C243.10623405 180.9694863 243.11282368 190.85680168 243.10696179 200.74421328 C243.10359977 206.6405148 243.10595688 212.53666672 243.12321281 218.43294716 C243.13874139 223.98086326 243.13466083 229.52843503 243.11590767 235.07633781 C243.1122379 237.10431988 243.11528282 239.1323278 243.12579346 241.16028595 C243.21861286 260.56092533 239.76102325 275.20119071 226.0929718 289.80949402 C215.60711608 299.61937476 203.13286736 304.28410913 188.96380615 304.28088379 C188.09412061 304.28456048 187.22443507 304.28823717 186.32839543 304.29202527 C183.41454704 304.30303715 180.50073434 304.30690173 177.58686829 304.31071472 C175.49725227 304.31698131 173.40763737 304.32362829 171.31802368 304.33062744 C164.45525384 304.35164894 157.59248382 304.36202882 150.72969055 304.37199402 C148.36463471 304.37604244 145.99957899 304.38015939 143.63452339 304.3843441 C132.52117453 304.40339245 121.40783229 304.41762361 110.29447025 304.42595607 C97.47893751 304.43572412 84.66357768 304.46203402 71.84810585 304.50245696 C61.93452226 304.53265024 52.02098814 304.54742805 42.10735947 304.55073708 C36.19031445 304.55308409 30.27345424 304.56199924 24.35645866 304.58719826 C18.78565963 304.61053971 13.2151663 304.61468768 7.64433098 304.60443687 C5.60624676 304.60394287 3.56814717 304.61022322 1.53010941 304.62399292 C-17.57014176 304.74575975 -31.7617209 301.00279149 -46.06718445 287.61808777 C-52.99427947 280.21366351 -58.18274497 270.70672449 -60.0242157 260.69230652 C-61.8963214 255.81948282 -64.66656997 254.19706975 -68.9539032 251.44621277 C-70.50499609 250.40240489 -72.05576846 249.35812057 -73.60624695 248.31340027 C-74.40143738 247.7871405 -75.19662781 247.26088074 -76.01591492 246.71867371 C-79.73212733 244.23916179 -83.37323273 241.65633547 -87.0164032 239.07121277 C-88.06114807 238.33306335 -88.06114807 238.33306335 -89.1269989 237.58000183 C-93.98415659 234.1450434 -98.82594758 230.68941608 -103.6414032 227.19621277 C-104.2493573 226.75978455 -104.8573114 226.32335632 -105.48368835 225.873703 C-115.75731971 218.37294065 -115.75731971 218.37294065 -117.3914032 212.13371277 C-117.87107304 206.85734455 -117.33960987 203.55602277 -114.3914032 199.13371277 C-109.22659421 194.03934707 -103.41948141 189.93970513 -97.3914032 185.94621277 C-90.40439634 181.24824198 -83.58390083 176.39726039 -76.9070282 171.26774597 C-76.31148132 170.81230408 -75.71593445 170.35686218 -75.1023407 169.88761902 C-74.27235361 169.24134835 -74.27235361 169.24134835 -73.4255991 168.58202171 C-71.3914032 167.13371277 -71.3914032 167.13371277 -69.09828854 165.91806984 C-64.33462126 163.34348195 -64.33462126 163.34348195 -61.56546211 158.89988327 C-61.25631373 156.14027908 -61.23473765 153.50501013 -61.30961609 150.72892761 C-61.30176086 149.69394135 -61.29390564 148.65895508 -61.28581238 147.59260559 C-61.27001314 144.17522562 -61.31718382 140.76169638 -61.36405945 137.34465027 C-61.36348409 134.96058185 -61.35865426 132.57651101 -61.34976196 130.19245911 C-61.33646149 123.91325278 -61.37515523 117.63546165 -61.42643738 111.35649109 C-61.48941165 102.53421609 -61.48353684 93.71169409 -61.48306274 84.88923645 C-61.48284228 80.19440362 -61.50298456 75.50036182 -61.53961182 70.80567932 C-61.5490213 68.64207518 -61.55830024 66.47847046 -61.56742859 64.31486511 C-61.57940781 63.35755493 -61.59138702 62.40024475 -61.60372925 61.41392517 C-61.63858324 44.08006539 -56.65744125 28.62388465 -44.5789032 15.94621277 C-32.09278864 4.11726214 -16.9388551 -0.03553266 0 0 Z M79.6085968 97.13371277 C78.0898364 99.34653786 78.0898364 99.34653786 77.2414093 102.16105652 C76.83696594 103.32749695 76.43252258 104.49393738 76.01582336 105.69572449 C75.54206004 107.17355929 75.07351891 108.65307276 74.6085968 110.13371277 C74.32319031 111.03631836 74.03778381 111.93892395 73.74372864 112.86888123 C71.25587167 120.79099643 68.86607712 128.74190112 66.4835968 136.69621277 C64.97595617 141.71488576 63.46630767 146.73295316 61.95625305 151.75090027 C61.58523972 152.98565598 61.21422638 154.22041168 60.83197021 155.49258423 C58.60301369 162.89369929 56.32144654 170.27537997 53.97969055 177.64152527 C53.45032612 179.3191056 52.92118248 180.99675563 52.39228821 182.67448425 C51.66665517 184.97569181 50.93628834 187.27464988 50.18788147 189.56855774 C49.51842398 191.62124657 48.86823705 193.679126 48.22187805 195.73918152 C47.67720886 197.42757141 47.67720886 197.42757141 47.12153625 199.15007019 C46.53049638 202.58800369 46.93743768 204.11160263 48.6085968 207.13371277 C51.8947767 210.10187526 54.61659891 211.04353114 59.0460968 211.44621277 C62.53957715 211.4417002 62.53957715 211.4417002 64.65937805 209.68058777 C67.404894 206.09326032 68.26351742 202.4067629 69.3585968 198.07121277 C69.57902649 197.25588074 69.79945618 196.44054871 70.02656555 195.60050964 C70.89376273 192.32293523 71.6085968 189.54142403 71.6085968 186.13371277 C84.4785968 186.13371277 97.3485968 186.13371277 110.6085968 186.13371277 C111.1035968 189.59871277 111.1035968 189.59871277 111.6085968 193.13371277 C112.2701951 195.94658256 113.12462481 198.68778784 113.9835968 201.44621277 C114.29683899 202.5183905 114.29683899 202.5183905 114.6164093 203.61222839 C116.0017976 208.13364259 116.0017976 208.13364259 119.6085968 211.13371277 C125.21444942 211.90314352 128.39431248 210.50326513 133.0070343 207.61808777 C135.06130277 205.71413163 135.29104465 204.92587175 135.6085968 202.13371277 C135.01528473 199.54712136 134.34340009 197.11298025 133.5382843 194.59318542 C133.30583511 193.83790054 133.07338593 193.08261566 132.83389282 192.30444336 C132.06015101 189.79910021 131.27196521 187.29855063 130.4835968 184.79777527 C129.93756326 183.04042537 129.3924117 181.2828012 128.84809875 179.5249176 C127.40652688 174.87804738 125.95261238 170.23512681 124.49623108 165.59288025 C123.04294706 160.95262421 121.60171814 156.30862964 120.15937805 151.66496277 C117.7060653 143.77073024 115.23500543 135.88221639 112.75473022 127.996418 C111.26771231 123.26055697 109.80851362 118.51764197 108.3742218 113.76554871 C107.89819519 112.20856766 107.89819519 112.20856766 107.41255188 110.62013245 C106.86061891 108.81233426 106.31778342 107.00171542 105.7870636 105.18757629 C104.46292242 100.89368726 103.31809841 97.95109009 99.6085968 95.13371277 C96.60804578 94.1335291 94.43776739 93.93585668 91.2960968 93.88371277 C90.37183899 93.85793152 89.44758118 93.83215027 88.49531555 93.80558777 C84.91691451 94.2123343 82.68903583 95.27176415 79.6085968 97.13371277 Z " fill="#000000" transform="translate(269.3914031982422,207.8662872314453)"/>
<path d="M0 0 C0.86968554 -0.00367669 1.73937108 -0.00735338 2.63541073 -0.01114148 C5.54925911 -0.02215336 8.46307181 -0.02601794 11.37693787 -0.02983093 C13.46655388 -0.03609752 15.55616878 -0.0427445 17.64578247 -0.04974365 C24.50855232 -0.07076515 31.37132233 -0.08114503 38.2341156 -0.09111023 C40.59917144 -0.09515866 42.96422716 -0.0992756 45.32928276 -0.10346031 C56.44263162 -0.12250866 67.55597386 -0.13673982 78.6693359 -0.14507228 C91.48486865 -0.15484033 104.30022847 -0.18115023 117.1157003 -0.22157317 C127.0292839 -0.25176645 136.94281801 -0.26654426 146.85644668 -0.26985329 C152.7734917 -0.2722003 158.69035192 -0.28111546 164.60734749 -0.30631447 C170.17814652 -0.32965592 175.74863985 -0.3338039 181.31947517 -0.32355309 C183.3575594 -0.32305908 185.39565898 -0.32933943 187.43369675 -0.34310913 C206.53394791 -0.46487596 220.72552706 3.2780923 235.0309906 16.66279602 C241.95808562 24.06722028 247.14655112 33.5741593 248.98802185 43.58857727 C250.86012755 48.46140097 253.63037613 50.08381404 257.91770935 52.83467102 C259.46880224 53.8784789 261.01957461 54.92276322 262.5700531 55.96748352 C263.36524353 56.49374329 264.16043396 57.02000305 264.97972107 57.56221008 C268.69593348 60.041722 272.33703888 62.62454832 275.98020935 65.20967102 C276.67670593 65.70177063 277.37320251 66.19387024 278.09080505 66.70088196 C282.94796274 70.13584039 287.78975374 73.59146771 292.60520935 77.08467102 C293.21316345 77.52109924 293.82111755 77.95752747 294.44749451 78.40718079 C304.72112586 85.90794314 304.72112586 85.90794314 306.35520935 92.14717102 C306.83487919 97.42353924 306.30341602 100.72486101 303.35520935 105.14717102 C298.19040036 110.24153672 292.38328756 114.34117866 286.35520935 118.33467102 C279.36820249 123.0326418 272.54770699 127.8836234 265.87083435 133.01313782 C265.27528748 133.46857971 264.6797406 133.92402161 264.06614685 134.39326477 C263.47922058 134.86022766 262.89229431 135.32719055 262.2875824 135.80830383 C260.35520935 137.14717102 260.35520935 137.14717102 257.93260193 138.18135071 C255.00805759 139.55971373 253.37530316 140.59706067 251.35520935 143.14717102 C250.06923203 149.27500069 250.18548055 155.28612743 250.29270935 161.52217102 C250.28963272 163.22921452 250.28251342 164.93625582 250.27122498 166.64326477 C250.25243552 170.81266244 250.28893098 174.97829299 250.35520935 179.14717102 C249.16669373 179.16699036 247.9781781 179.18680969 246.75364685 179.20722961 C242.26550636 179.28437239 237.77764535 179.37290341 233.28977966 179.46455383 C231.36210217 179.50240174 229.43436457 179.53732376 227.50657654 179.56904602 C200.3741557 180.02078248 176.49803479 182.81637065 155.02708435 200.89717102 C153.35520935 202.14717102 153.35520935 202.14717102 151.35520935 202.14717102 C151.12833435 201.36342102 150.90145935 200.57967102 150.66770935 199.77217102 C149.60978708 197.01282523 149.60978708 197.01282523 147.21458435 196.03779602 C143.89181021 195.00283358 140.75433102 194.62888913 137.29270935 194.27217102 C127.49130945 193.11439269 118.70090318 190.4580671 110.35520935 185.14717102 C110.69552185 184.7320929 111.03583435 184.31701477 111.38645935 183.88935852 C121.99719518 170.4001784 129.01962805 155.22828798 131.35520935 138.14717102 C132.3194281 138.09818665 133.28364685 138.04920227 134.27708435 137.99873352 C136.17200623 137.88658508 136.17200623 137.88658508 138.10520935 137.77217102 C139.98466248 137.66775696 139.98466248 137.66775696 141.90208435 137.56123352 C144.97774922 137.19243208 146.81919862 136.85836272 149.35520935 135.14717102 C150.8968411 132.06390752 150.6526847 129.53839003 150.35520935 126.14717102 C148.59572201 124.09315048 147.12536332 123.26539771 144.44615173 122.85411072 C142.03191573 122.70239843 139.63352167 122.65354511 137.21458435 122.63545227 C135.89131134 122.60852547 135.89131134 122.60852547 134.54130554 122.58105469 C131.7293218 122.52696131 128.9175077 122.49305926 126.10520935 122.45967102 C124.19633158 122.42649707 122.2874762 122.39200734 120.37864685 122.3561554 C115.7042901 122.27123541 111.02998359 122.20441961 106.35520935 122.14717102 C106.33539001 121.53720276 106.31557068 120.9272345 106.29515076 120.29878235 C106.19953059 117.5186657 106.0900023 114.73926256 105.98020935 111.95967102 C105.9338031 110.52011047 105.9338031 110.52011047 105.88645935 109.0514679 C105.84778748 108.12012024 105.8091156 107.18877258 105.76927185 106.22920227 C105.73785095 105.3756012 105.70643005 104.52200012 105.67405701 103.64253235 C105.31406419 100.82516131 104.63222402 98.6837548 103.35520935 96.14717102 C100.46059034 93.785778 100.46059034 93.785778 96.79270935 94.33467102 C93.09695183 94.79556864 93.09695183 94.79556864 91.35520935 98.14717102 C90.98771546 100.76006596 90.98771546 100.76006596 90.94114685 103.69013977 C90.88313904 105.29985657 90.88313904 105.29985657 90.82395935 106.9420929 C90.79302185 108.06164368 90.76208435 109.18119446 90.73020935 110.33467102 C90.67220154 112.03139954 90.67220154 112.03139954 90.61302185 113.7624054 C90.51868402 116.55716352 90.43309283 119.3519138 90.35520935 122.14717102 C88.52361267 122.1690448 88.52361267 122.1690448 86.65501404 122.19136047 C82.12232763 122.24935667 77.59013731 122.32658959 73.05784607 122.40962219 C71.09666499 122.4428653 69.13538837 122.47089917 67.17405701 122.49360657 C64.35381888 122.52716383 61.5344557 122.57948001 58.71458435 122.63545227 C57.83840454 122.64184219 56.96222473 122.64823212 56.05949402 122.65481567 C52.49834624 122.74072151 49.99765956 122.81729897 46.79759216 124.46040344 C45.01902893 126.22692401 45.01902893 126.22692401 44.91770935 129.64717102 C45.05562888 133.05763723 45.05562888 133.05763723 46.73020935 135.02217102 C50.25580819 137.46297021 53.22720935 137.43902557 57.48020935 137.70967102 C58.76153748 137.79346008 60.0428656 137.87724915 61.36302185 137.96357727 C62.35044373 138.02416321 63.3378656 138.08474915 64.35520935 138.14717102 C64.58595154 139.23513977 64.81669373 140.32310852 65.0544281 141.44404602 C68.72575688 158.2168668 75.19887831 171.2976287 85.35520935 185.14717102 C75.01257847 190.72461071 65.65257119 194.25789797 53.86302185 194.83857727 C51.05987199 195.18351316 48.88857279 195.90697045 46.35520935 197.14717102 C44.83028937 200.19701098 45.11958387 202.78950792 45.35520935 206.14717102 C46.44312368 207.959833 46.44312368 207.959833 48.35520935 209.14717102 C64.06974114 211.54669534 80.1863744 205.88343064 93.35520935 197.70967102 C96.92965636 195.84797987 97.59291493 196.00998033 101.35520935 197.14717102 C103.12101958 198.03617916 104.88505556 198.93019551 106.62034607 199.87739563 C118.52810117 206.3702712 130.81904865 209.28773225 144.35520935 210.14717102 C142.99800382 213.88450053 141.27537336 216.92750642 139.04270935 220.20967102 C128.8952998 235.96874573 126.38435114 253.14982611 126.0388031 271.52998352 C126.018022 272.47026398 125.99724091 273.41054443 125.97583008 274.37931824 C125.91114503 277.34353787 125.85183196 280.30783577 125.79270935 283.27217102 C125.74944678 285.29822035 125.70583021 287.32426215 125.66184998 289.35029602 C125.55554848 294.28251024 125.45406015 299.21480208 125.35520935 304.14717102 C109.15137855 304.19403918 92.94756998 304.22923209 76.74368763 304.25079536 C69.21874529 304.26107684 61.69384524 304.27507681 54.16893005 304.29804993 C47.60479044 304.31808017 41.04068147 304.33091015 34.47651213 304.33534801 C31.0057649 304.3379392 27.53510531 304.34396312 24.06438637 304.35863113 C20.17539032 304.37493122 16.28647744 304.37514458 12.39744568 304.3742218 C11.26599121 304.38141235 10.13453674 304.38860291 8.96879578 304.39601135 C-9.29115579 304.34944355 -25.01143345 300.11970893 -38.70729065 287.64717102 C-52.44087854 273.30930526 -54.09533141 257.41634326 -54.04884338 238.57368469 C-54.0545517 236.48495113 -54.06151775 234.39622068 -54.06964111 232.30749512 C-54.08753814 226.65445691 -54.08641041 221.00157422 -54.08069873 215.34851623 C-54.07760136 210.61964887 -54.08370555 205.89081115 -54.08973747 201.16194803 C-54.10377025 190.00001471 -54.10223225 178.83815795 -54.09083557 167.67622375 C-54.07936017 156.18365639 -54.0934233 144.69132255 -54.12023205 133.19878596 C-54.1424279 123.31139749 -54.14901753 113.42408211 -54.14315563 103.53667051 C-54.13979362 97.64036898 -54.14215073 91.74421707 -54.15940666 85.84793663 C-54.17493524 80.30002053 -54.17085467 74.75244876 -54.15210152 69.20454597 C-54.14843175 67.17656391 -54.15147666 65.14855599 -54.1619873 63.12059784 C-54.25480671 43.71995846 -50.7972171 29.07969308 -37.12916565 14.47138977 C-26.64330993 4.66150902 -14.16906121 -0.00322534 0 0 Z " fill="#000000" transform="translate(53.64479064941406,-0.1471710205078125)"/>
<path d="M0 0 C11.55 0 23.1 0 35 0 C33.62283621 13.77163787 29.11537941 24.50468042 20 35 C19.01 35.66 18.02 36.32 17 37 C7.99266559 26.66671281 0 14.17146429 0 0 Z " fill="#000000" transform="translate(134,138)"/>
<path d="M0 0 C2.2371917 2.2371917 2.57850298 3.41943011 3.42041016 6.41796875 C3.68052887 7.33231689 3.94064758 8.24666504 4.20864868 9.1887207 C4.48268524 10.17831787 4.7567218 11.16791504 5.0390625 12.1875 C5.32478119 13.20094482 5.61049988 14.21438965 5.90487671 15.25854492 C6.5080634 17.40293355 7.10804484 19.54822596 7.70507812 21.69433594 C8.62176499 24.98837526 9.54828972 28.27952153 10.4765625 31.5703125 C11.06047546 33.65087908 11.64382783 35.73160309 12.2265625 37.8125 C12.50464752 38.80209717 12.78273254 39.79169434 13.06924438 40.8112793 C13.32305878 41.72562744 13.57687317 42.63997559 13.83837891 43.58203125 C14.1757457 44.79209839 14.1757457 44.79209839 14.51992798 46.02661133 C15 48 15 48 15 50 C5.43 50 -4.14 50 -14 50 C-12.67648138 43.38240689 -11.2728617 36.99146689 -9.43359375 30.52734375 C-9.07516136 29.25365685 -9.07516136 29.25365685 -8.70948792 27.95423889 C-8.20962527 26.18161595 -7.70789493 24.40951867 -7.2043457 22.63793945 C-6.4309464 19.91442155 -5.66530602 17.188802 -4.90039062 14.46289062 C-4.41191473 12.73424597 -3.92299873 11.0057256 -3.43359375 9.27734375 C-3.20441757 8.46079819 -2.97524139 7.64425262 -2.73912048 6.80296326 C-1.11515228 1.11515228 -1.11515228 1.11515228 0 0 Z " fill="#000000" transform="translate(360,328)"/>
</svg>
