<?xml version="1.0" encoding="UTF-8"?>
<svg version="1.1" xmlns="http://www.w3.org/2000/svg" width="512" height="512">
<path d="M0 0 C1.34533337 -0.00668677 1.34533337 -0.00668677 2.7178452 -0.01350862 C4.19753573 -0.01323207 4.19753573 -0.01323207 5.70711899 -0.01294994 C6.75421626 -0.01662663 7.80131353 -0.02030332 8.88014102 -0.02409142 C12.40611041 -0.03514791 15.93205036 -0.03897543 19.45803452 -0.04278088 C21.97910786 -0.04904399 24.50018028 -0.05569065 27.02125168 -0.0626936 C34.59888918 -0.08193424 42.17652151 -0.0925234 49.75417721 -0.10142139 C53.32264679 -0.10580481 56.89111488 -0.11117146 60.45958328 -0.11641026 C72.32184287 -0.13342168 84.18410154 -0.14791607 96.04637146 -0.155159 C99.12451046 -0.15706889 102.20264945 -0.15898922 105.28078842 -0.16094494 C106.4283714 -0.16167055 106.4283714 -0.16167055 107.59913787 -0.16241082 C119.99382888 -0.17071197 132.3884234 -0.19605066 144.78307226 -0.22852562 C157.50827263 -0.26159486 170.23342395 -0.27960761 182.95866752 -0.28280324 C190.10349877 -0.28496841 197.24818929 -0.29371802 204.39297867 -0.31926441 C211.1136354 -0.34323884 217.83399503 -0.34679798 224.55470085 -0.33650303 C227.02220946 -0.33600638 229.48973035 -0.34236447 231.957201 -0.35605907 C235.32458543 -0.37370348 238.69105288 -0.36670767 242.05843735 -0.35352612 C243.52474354 -0.36997998 243.52474354 -0.36997998 245.02067208 -0.38676625 C251.08889632 -0.32937659 254.68594133 0.55295171 259.63674545 4.13422108 C263.42724482 9.02197026 264.76676414 12.56068856 264.7344017 18.67718983 C264.73117905 19.75033436 264.72795639 20.82347889 264.72463608 21.92914295 C264.71625717 23.04869373 264.70787827 24.16824451 264.69924545 25.32172108 C264.69473373 26.45287342 264.69022202 27.58402576 264.68557358 28.74945545 C264.67378043 31.54443034 264.65732195 34.33929928 264.63674545 37.13422108 C263.97368393 37.30437733 263.31062241 37.47453358 262.62746811 37.64984608 C232.37896513 45.50850016 206.5166074 57.47881658 183.63674545 79.13422108 C182.21748764 80.43939686 182.21748764 80.43939686 180.76955795 81.77093983 C152.72611873 108.14507212 136.64071018 147.83929134 135.41799545 185.98187733 C134.76633028 217.81510605 141.61504101 255.92177912 163.05862045 280.96234608 C164.80549 284.47338091 164.7895987 284.88355677 163.6719017 288.41156483 C163.02903701 290.00062003 162.34890737 291.57499151 161.63674545 293.13422108 C161.2936937 293.90524158 160.95064194 294.67626209 160.59719467 295.47064686 C159.47064802 297.90602762 158.28642285 300.30285388 157.07424545 302.69672108 C156.63588364 303.56369617 156.19752182 304.43067127 155.74587631 305.32391834 C149.6908144 317.11501319 143.15543789 328.19134684 134.03933334 337.88788319 C131.96423524 340.16143298 130.71328342 341.76500621 130.08205795 344.81000233 C130.4617517 347.21468919 130.4617517 347.21468919 132.1875267 348.87250233 C154.14814013 360.18554561 192.67425514 351.51019344 214.9765892 344.70843983 C219.793829 343.15433533 224.33583595 341.165822 228.7734642 338.72406483 C231.63674545 338.13422108 231.63674545 338.13422108 241.63674545 341.13422108 C249.22674545 343.11422108 256.81674545 345.09422108 264.63674545 347.13422108 C264.63674545 365.61422108 264.63674545 384.09422108 264.63674545 403.13422108 C171.90674545 403.13422108 79.17674545 403.13422108 -16.36325455 403.13422108 C-16.52457994 305.2948495 -16.52457994 305.2948495 -16.55856705 264.4877367 C-16.56639874 255.14699749 -16.57448073 245.80625854 -16.58298111 236.46551991 C-16.5840361 235.29478257 -16.5850911 234.12404523 -16.58617806 232.917831 C-16.60358348 214.00798692 -16.63512326 195.09819139 -16.67186573 176.18837612 C-16.70924909 156.78716245 -16.73148489 137.38597423 -16.73960853 117.98472601 C-16.7451017 106.00953052 -16.76246216 94.03447223 -16.79492041 82.05931897 C-16.81603613 73.85164479 -16.82246126 65.64404173 -16.81726006 57.43634235 C-16.8146937 52.69828254 -16.81867534 47.9604628 -16.84007645 43.22244549 C-16.85952461 38.88517692 -16.86053589 34.54831012 -16.84685013 30.21102316 C-16.84515837 28.64158733 -16.85024737 27.07212655 -16.86278728 25.5027399 C-16.9726292 10.90777256 -16.9726292 10.90777256 -12.36325455 5.13422108 C-8.38418512 1.44630307 -5.39227983 0.01243211 0 0 Z M100.05837631 26.00287342 C98.28837376 28.65650939 98.07504032 30.00472107 98.63674545 33.13422108 C100.20493115 35.16317561 101.0970063 36.02982025 103.64100266 36.52190113 C104.40393127 36.52730412 105.16685989 36.5327071 105.95290756 36.53827381 C106.82068329 36.55095798 107.68845901 36.56364216 108.58253098 36.5767107 C109.9841523 36.57230724 109.9841523 36.57230724 111.4140892 36.56781483 C112.85843086 36.5756776 112.85843086 36.5756776 114.33195114 36.58369923 C116.36867941 36.59012359 118.40544476 36.58877709 120.44216537 36.580266 C123.55913017 36.57176231 126.67425898 36.60050173 129.79104233 36.63226795 C131.7695574 36.63388019 133.74807573 36.633302 135.7265892 36.63031483 C136.65897919 36.64154881 137.59136917 36.65278278 138.5520134 36.66435719 C143.74104762 36.6391119 143.74104762 36.6391119 148.26003647 34.29852772 C149.92488911 32.12209822 149.92488911 32.12209822 149.57424545 29.00922108 C148.86979858 25.84247176 148.86979858 25.84247176 145.63674545 24.13422108 C143.62823572 23.81945847 143.62823572 23.81945847 141.41238022 23.84369373 C140.56462524 23.83093403 139.71687027 23.81817432 138.84342575 23.80502796 C137.93088531 23.80280231 137.01834488 23.80057667 136.0781517 23.79828358 C135.13745331 23.79162678 134.19675491 23.78496998 133.22755051 23.77811146 C131.23791078 23.76798585 129.24823709 23.76329441 127.25857162 23.76361561 C124.21413894 23.75924247 121.17115595 23.72292218 118.12697983 23.68500233 C116.19404208 23.67913417 114.26109744 23.67516477 112.3281517 23.67328358 C111.4176355 23.65891254 110.50711929 23.64454151 109.56901169 23.62973499 C104.46442296 23.63094506 104.46442296 23.63094506 100.05837631 26.00287342 Z " fill="#000000" transform="translate(45.36325454711914,15.865778923034668)"/>
<path d="M0 0 C0.92554688 0.44730469 1.85109375 0.89460938 2.8046875 1.35546875 C20.30215676 10.20804593 36.29823366 24.4118806 48 40 C48.72703125 40.96164063 49.4540625 41.92328125 50.203125 42.9140625 C73.40657932 74.96079136 82.45318472 114.12533822 76.47167969 153.19702148 C71.17002453 184.27061144 56.27388917 211.85150922 34 234 C33.20335937 234.79664063 32.40671875 235.59328125 31.5859375 236.4140625 C5.18446178 261.40275022 -30.3106588 274.21965906 -66.3125 274.25 C-67.02897705 274.25067474 -67.7454541 274.25134949 -68.48364258 274.25204468 C-87.2515341 274.22396318 -104.22192065 271.31036231 -121.625 264.125 C-127.59511092 262.13496303 -132.16818103 264.34361582 -137.75 266.75 C-143.43177543 269.10580587 -149.142646 271.079382 -155.0625 272.75 C-155.74473633 272.94819336 -156.42697266 273.14638672 -157.12988281 273.35058594 C-169.78464069 276.80510454 -182.36408771 277.27668903 -195.375 277.125 C-196.90103569 277.11493466 -198.42707792 277.10581518 -199.953125 277.09765625 C-203.63555614 277.07595976 -207.31773376 277.04163286 -211 277 C-209.68633562 274.28499326 -208.25271403 271.72919166 -206.63671875 269.18359375 C-200.47046702 259.30317939 -194.91154361 249.215258 -189.8125 238.75 C-189.24813232 237.60845459 -188.68376465 236.46690918 -188.10229492 235.29077148 C-184.04675418 226.99684462 -184.04675418 226.99684462 -183 218 C-184.38138503 215.29988456 -185.62479761 213.29645662 -187.4375 210.9375 C-188.37594768 209.61541123 -189.30944723 208.28979796 -190.23828125 206.9609375 C-190.94138428 205.96465332 -190.94138428 205.96465332 -191.65869141 204.94824219 C-205.52135892 184.81280593 -211.91887011 159.1902813 -213 135 C-213.04125 134.09765625 -213.0825 133.1953125 -213.125 132.265625 C-213.99246402 93.01287792 -198.88872125 55.77921602 -171.96166992 27.44189453 C-127.11783958 -18.29341261 -56.87177683 -29.24258029 0 0 Z M-87.4375 37.77734375 C-91.51807883 43.58196714 -91.24327172 49.16136175 -91 56 C-91.66 56.20625 -92.32 56.4125 -93 56.625 C-107.63124274 63.33098625 -117.39419135 77.46664958 -122.875 92.125 C-127.02389932 103.99143233 -127.34178877 115.71866282 -127.47851562 128.17382812 C-127.79806142 142.92749131 -130.50189065 153.41047025 -141 164 C-143.28506343 165.41844294 -145.35897208 166.32527719 -147.89453125 167.19140625 C-152.70478669 169.03875852 -156.06692505 172.60038757 -158.875 176.8125 C-161.44639812 184.09812802 -161.57987508 189.55995786 -158.37109375 196.69921875 C-155.18397962 202.04739603 -150.79866677 204.98074283 -145 207 C-142.47806079 207.28505994 -142.47806079 207.28505994 -139.8425293 207.22705078 C-138.84186935 207.22689972 -137.84120941 207.22674866 -136.81022644 207.22659302 C-135.7423439 207.21627045 -134.67446136 207.20594788 -133.57421875 207.1953125 C-132.47149124 207.1924826 -131.36876373 207.18965271 -130.23262024 207.18673706 C-126.71746886 207.17555981 -123.20257411 207.15045937 -119.6875 207.125 C-117.30143598 207.11496704 -114.91536795 207.10584174 -112.52929688 207.09765625 C-106.68611065 207.07562849 -100.84307366 207.04217514 -95 207 C-94.94263168 207.6165596 -94.88526337 208.2331192 -94.82615662 208.86836243 C-94.74487015 209.67790878 -94.66358368 210.48745514 -94.57983398 211.3215332 C-94.46284401 212.5248101 -94.46284401 212.5248101 -94.3434906 213.75239563 C-93.43650977 219.68715503 -89.08591807 224.44108392 -84.41796875 227.9296875 C-76.53845645 232.75199518 -70.22115502 233.7612814 -61 233 C-52.82089943 230.85727156 -46.41626684 225.77182829 -42.125 218.5625 C-40.02153044 214.78043388 -39.5619654 211.26639405 -39 207 C-38.08704163 207.01665459 -38.08704163 207.01665459 -37.15563965 207.03364563 C-30.7962925 207.14463256 -24.4372224 207.21982998 -18.07714844 207.2746582 C-15.70659196 207.29973575 -13.3361123 207.33380632 -10.96582031 207.37719727 C-7.54993695 207.43814397 -4.13507964 207.4662785 -0.71875 207.48828125 C0.85984802 207.52699089 0.85984802 207.52699089 2.47033691 207.56648254 C10.10570222 207.56936483 15.01805435 205.8730281 20.5201416 200.5214386 C24.93590721 195.56275344 26.54977523 191.01580388 26.375 184.47265625 C25.44859027 178.36414212 22.55500556 172.78375145 17.625 169 C15.22779125 167.39398823 13.49105252 166.89047966 10.60546875 166.26953125 C6.03042636 164.65860083 4.40807082 162.54771151 1.6875 158.6875 C1.04458008 157.83381836 1.04458008 157.83381836 0.38867188 156.96289062 C-3.86931018 151.17708349 -5.23806111 146.95058944 -5.34375 139.78515625 C-5.3583728 139.09296494 -5.37299561 138.40077362 -5.38806152 137.68760681 C-5.43431372 135.47929692 -5.46856992 133.27106729 -5.5 131.0625 C-5.86699808 105.8327934 -9.79749993 83.22308411 -28.109375 64.64453125 C-35.17578569 57.98428179 -35.17578569 57.98428179 -44 55 C-43.79375 54.34 -43.5875 53.68 -43.375 53 C-42.49260007 45.94080056 -45.38958487 40.57864367 -49.359375 34.98046875 C-53.93959042 29.45149443 -59.78668984 27.32133102 -66.75 26.625 C-75.69851559 26.94946908 -81.91706762 30.9324528 -87.4375 37.77734375 Z " fill="#000000" transform="translate(405,79)"/>
<path d="M0 0 C92.73 0 185.46 0 281 0 C281 55.80182891 281 55.80182891 275.23455006 61.85291523 C269.60629707 65.28337479 264.83904486 65.70747613 258.32835388 65.62818909 C257.27698449 65.63528347 256.22561509 65.64237786 255.14238602 65.64968723 C251.63157628 65.66724073 248.12187746 65.64917473 244.61108398 65.63110352 C242.08926897 65.63624327 239.56745754 65.64352496 237.0456543 65.65278625 C230.91476011 65.66937864 224.78427549 65.66267179 218.6533969 65.64469803 C213.66983371 65.63065368 208.68635704 65.62678316 203.70277596 65.6301403 C202.9926131 65.63061775 202.28245024 65.63109519 201.55076729 65.6315871 C200.10795066 65.63261346 198.66513405 65.63366882 197.22231746 65.63475286 C184.4744011 65.64331352 171.72663867 65.62666495 158.97875977 65.59692383 C146.61606381 65.56808185 134.25358952 65.56100655 121.89086914 65.57641602 C108.41878738 65.59318532 94.94681078 65.59720545 81.47472626 65.57970566 C80.03762028 65.57786132 78.60051429 65.57602659 77.16340828 65.57420158 C76.45637683 65.57328949 75.74934537 65.5723774 75.02088873 65.57143768 C70.04422124 65.56583727 65.06760517 65.56913477 60.09094048 65.57574654 C53.3906853 65.58429506 46.69079694 65.5712955 39.9905777 65.54389763 C37.53114584 65.53700897 35.07168418 65.53692092 32.61225319 65.54411316 C29.25603267 65.55279727 25.90080035 65.53686787 22.54466248 65.5146637 C21.57053561 65.52290446 20.59640875 65.53114523 19.59276289 65.53963572 C13.53124732 65.46557795 9.96615487 64.53513767 5 61 C-9.62210192 45.22352161 0 19.35960136 0 0 Z M107.0625 24.1875 C104.50816892 28.25357805 103.58829429 32.21597965 104 37 C105.72557021 42.93297904 109.02789107 46.5089448 114 50 C116.8328458 50.94428193 118.62174955 51.13637184 121.55981445 51.16113281 C122.48119705 51.17074036 123.40257965 51.1803479 124.35188293 51.19024658 C125.8425251 51.1966214 125.8425251 51.1966214 127.36328125 51.203125 C128.38802048 51.20882507 129.4127597 51.21452515 130.46855164 51.22039795 C132.63812223 51.22984715 134.80770717 51.23638161 136.97729492 51.24023438 C140.28915596 51.24993165 143.60039422 51.28095281 146.91210938 51.3125 C149.02082965 51.31903106 151.12955436 51.32428113 153.23828125 51.328125 C154.22597 51.3404718 155.21365875 51.3528186 156.23127747 51.36553955 C163.2067632 51.34305003 167.55253236 50.33621911 172.75 45.375 C175.6044395 41.63086507 176.81719602 37.68931949 177 33 C176.02320688 27.38092206 173.42434062 23.60120748 169 20 C163.63177249 16.58963924 159.01139893 16.54692557 152.8515625 16.56640625 C151.88020355 16.5611644 150.9088446 16.55592255 149.90805054 16.55052185 C147.85895745 16.54411606 145.80982751 16.54541991 143.76074219 16.55395508 C140.64190451 16.56245394 137.5249065 16.53370081 134.40625 16.50195312 C132.40885471 16.50034053 130.41145621 16.50091976 128.4140625 16.50390625 C127.48985504 16.49267227 126.56564758 16.48143829 125.61343384 16.46986389 C118.07265374 16.55016199 112.03544248 18.26211456 107.0625 24.1875 Z " fill="#000000" transform="translate(29,431)"/>
<path d="M0 0 C12.78060353 10.11334714 19.5821639 23.22928987 22.125 39.25 C22.62789527 44.96456837 22.63916673 50.70467167 22.6875 56.4375 C22.34043304 73.31804348 22.34043304 73.31804348 28.1875 88.75 C28.71472656 89.5646875 29.24195313 90.379375 29.78515625 91.21875 C30.22730469 91.8890625 30.66945313 92.559375 31.125 93.25 C31.455 93.91 31.785 94.57 32.125 95.25 C-6.155 95.25 -44.435 95.25 -83.875 95.25 C-79.875 88.25 -79.875 88.25 -78.65112305 86.15258789 C-75.86102687 81.04540236 -75.08462506 76.44993295 -74.6875 70.6875 C-74.57208862 69.33362183 -74.57208862 69.33362183 -74.4543457 67.95239258 C-74.06381505 63.07808452 -73.82533251 58.21649782 -73.7109375 53.328125 C-73.26554592 34.55184352 -70.37442374 19.18877319 -57.0625 4.9375 C-41.19120312 -9.95710169 -18.16629665 -12.60721133 0 0 Z " fill="#000000" transform="translate(363.875,148.75)"/>
<path d="M0 0 C1.27018478 -0.01265396 2.54036957 -0.02530792 3.8490448 -0.03834534 C5.24918011 -0.02702999 6.64931136 -0.01520255 8.04943848 -0.00291443 C9.52973793 -0.00805469 11.01003126 -0.01533679 12.49031067 -0.02459717 C16.50491579 -0.04310622 20.51885648 -0.03017623 24.53343391 -0.01050687 C28.73648978 0.00588528 32.93950375 -0.00293405 37.14257812 -0.00802612 C44.20066942 -0.01254646 51.25849564 0.00331892 58.31652832 0.03126526 C66.47426389 0.06331702 74.6315214 0.06330131 82.7892909 0.04605049 C90.63980568 0.03018152 98.49014534 0.0369213 106.34065247 0.0539875 C109.68028937 0.0608565 113.01978585 0.05982715 116.35942078 0.05244255 C120.29287241 0.04477601 124.22578064 0.05691725 128.15913963 0.08429146 C129.60187861 0.09117261 131.04466836 0.09127609 132.48740578 0.08407593 C134.45816182 0.07537462 136.42898183 0.09378355 138.3996582 0.11352539 C139.50208107 0.11633231 140.60450394 0.11913923 141.74033356 0.12203121 C145.39848336 0.74767883 147.07204595 2.05461139 149.6998291 4.62818909 C150.85379724 7.62850624 150.82566743 9.14771545 150.0123291 12.25318909 C148.49591195 14.99718203 147.38487302 16.0245215 144.6998291 17.62818909 C141.86338139 18.01129913 141.86338139 18.01129913 138.51991272 18.02259827 C137.2511026 18.03394806 135.98229248 18.04529785 134.67503357 18.05699158 C133.27127012 18.05434831 131.86750726 18.0513771 130.46374512 18.04811096 C128.98359537 18.05545132 127.50345134 18.06403745 126.02331543 18.07377625 C122.00469905 18.09600416 117.98628764 18.09892232 113.96761823 18.09702873 C110.61267713 18.09690909 107.25777956 18.10547043 103.90285057 18.11380625 C95.98806066 18.13304474 88.07337622 18.13592245 80.15856934 18.12916565 C71.99343713 18.12252344 63.82875651 18.14539517 55.6637159 18.18247938 C48.65297291 18.2131656 41.64237528 18.22453763 34.63156646 18.22064257 C30.44450687 18.21857401 26.2577987 18.22407036 22.07080269 18.24853516 C18.13322859 18.27078242 14.19638927 18.2689421 10.25881195 18.24860764 C8.81443907 18.24519397 7.37001691 18.25030221 5.92571068 18.26459122 C3.95279422 18.28276188 1.97965262 18.26703941 0.00672913 18.24964905 C-1.09699256 18.25036156 -2.20071424 18.25107407 -3.33788204 18.25180817 C-7.29611618 17.41852335 -8.8050785 15.74566702 -11.3001709 12.62818909 C-11.9251709 9.12818909 -11.9251709 9.12818909 -11.3001709 5.62818909 C-7.77933053 1.23064927 -5.60245003 0.00297959 0 0 Z " fill="#000000" transform="translate(268.3001708984375,256.37181091308594)"/>
<path d="M0 0 C0.79719955 0.00222061 1.59439911 0.00444122 2.41575623 0.00672913 C3.31661453 0.00680466 4.21747284 0.00688019 5.14562988 0.00695801 C6.12478867 0.01211929 7.10394745 0.01728058 8.11277771 0.02259827 C9.11018478 0.02401321 10.10759186 0.02542816 11.13522339 0.02688599 C14.3348027 0.03250337 17.53431315 0.04505881 20.73387146 0.05775452 C22.89728191 0.06276728 25.06069345 0.06733057 27.22410583 0.07142639 C32.53988471 0.08247845 37.85562317 0.09923348 43.17137146 0.12025452 C43.66637146 3.58525452 43.66637146 3.58525452 44.17137146 7.12025452 C41.100153 9.16773349 40.47012232 9.37153044 37.00706482 9.37904358 C36.17287521 9.3853479 35.33868561 9.39165222 34.47921753 9.39814758 C33.58227676 9.39409912 32.685336 9.39005066 31.76121521 9.38587952 C30.83796951 9.38779297 29.91472382 9.38970642 28.96350098 9.39167786 C27.01252469 9.39303859 25.06153932 9.38934992 23.11058044 9.3809967 C20.11696657 9.37028349 17.12395116 9.38090203 14.13035583 9.39369202 C12.2364743 9.39237064 10.34259313 9.3898087 8.44871521 9.38587952 C7.54975021 9.38992798 6.65078522 9.39397644 5.72457886 9.39814758 C4.47802269 9.3886911 4.47802269 9.3886911 3.20628357 9.37904358 C2.47364792 9.37745239 1.74101227 9.37586121 0.98617554 9.3742218 C-0.82862854 9.12025452 -0.82862854 9.12025452 -2.82862854 7.12025452 C-3.01612854 4.05775452 -3.01612854 4.05775452 -2.82862854 1.12025452 C-1.82862854 0.12025452 -1.82862854 0.12025452 0 0 Z " fill="#000000" transform="translate(148.82862854003906,460.87974548339844)"/>
<path d="M0 0 C10.23 0 20.46 0 31 0 C29.78010471 7.31937173 29.78010471 7.31937173 26 11 C21.20205854 13.62528873 17.44845861 14.5943773 12 14 C6.74285153 12.10742655 4.13155394 9.47364849 1 5 C0.67 3.35 0.34 1.7 0 0 Z " fill="#000000" transform="translate(322,286)"/>
<path d="M0 0 C2.72182248 1.3807166 3.89997868 2.63747602 6 5 C6.33 6.65 6.66 8.3 7 10 C-0.59 10.33 -8.18 10.66 -16 11 C-14 4 -14 4 -11.9375 1.5625 C-7.86888401 -0.60165744 -4.51226171 -0.9198987 0 0 Z " fill="#000000" transform="translate(342,119)"/>
</svg>
