<?xml version="1.0" encoding="UTF-8"?>
<svg version="1.1" xmlns="http://www.w3.org/2000/svg" width="512" height="512">
<path d="M0 0 C1.87028874 0.27655677 3.74068373 0.55239576 5.61117554 0.82757568 C9.62011194 1.41886438 13.62827347 2.01507483 17.6359005 2.61517334 C23.97648275 3.56447282 30.31876641 4.50203986 36.66133118 5.43798828 C48.97597954 7.25683546 61.28886873 9.0874203 73.60157776 10.91934204 C89.28478669 13.25221998 104.96873784 15.58004344 120.654342 17.89676476 C126.95606277 18.82791407 133.256868 19.76497102 139.55701673 20.70669556 C143.4770382 21.29152296 147.39775197 21.87160138 151.31866074 22.45044708 C153.13296617 22.71931092 154.94697828 22.99016296 156.76066399 23.26317596 C159.241636 23.63636656 161.72356964 24.00237132 164.20585632 24.36669922 C164.9182214 24.47564577 165.63058648 24.58459232 166.36453837 24.69684029 C173.9596875 25.79516916 180.91042694 25.52498725 188.48408508 24.36669922 C189.26311776 24.25235975 190.04215043 24.13802029 190.84479016 24.02021599 C193.43463823 23.63871968 196.02318582 23.24903999 198.61181641 22.859375 C200.47682143 22.58299794 202.34190542 22.30715327 204.20706177 22.03179932 C208.21420254 21.43917871 212.22079788 20.84303713 216.22701454 20.24420166 C222.56842312 19.29656793 228.91118607 18.35823216 235.25419617 17.42138672 C251.00932675 15.0929613 266.76276838 12.75318104 282.515625 10.40942383 C294.7595557 8.58781316 307.00398479 6.76971831 319.25006551 4.96261024 C325.54864074 4.03274958 331.84606284 3.09553312 338.14270556 2.15267944 C342.06921886 1.56639634 345.99669348 0.98676622 349.92445755 0.40892792 C351.73761238 0.14081945 353.5503696 -0.12999501 355.36267281 -0.40380096 C382.18398649 -4.45172531 382.18398649 -4.45172531 392.3449707 2.4296875 C397.59642027 7.54648451 399.50651154 13.19181725 399.68554688 20.36499023 C399.68507518 22.69780783 399.66832124 25.03066145 399.63793945 27.36328125 C399.63369461 28.59635513 399.62944977 29.82942902 399.62507629 31.09986877 C399.60833807 35.02253424 399.57069335 38.94467836 399.5324707 42.8671875 C399.51572168 45.53319561 399.5037304 48.19919882 399.49145508 50.86523438 C399.45845033 57.38689541 399.4082986 63.9082542 399.3449707 70.4296875 C398.33245082 70.42600033 397.31993093 70.42231316 396.27672863 70.41851425 C371.66571281 70.32980557 347.05471766 70.26402712 322.44357586 70.22243881 C310.54191603 70.20179362 298.64036167 70.17363565 286.73876953 70.12792969 C276.36808845 70.08812182 265.99748372 70.06226894 255.62672836 70.05333352 C250.13297534 70.04810852 244.63944082 70.03578728 239.14575768 70.00676727 C233.97888279 69.97969376 228.81231719 69.97122615 223.64537811 69.97725677 C221.7454161 69.97615292 219.84544414 69.96815121 217.94554329 69.9528656 C215.35818299 69.93306357 212.77200173 69.93771199 210.18461609 69.94866943 C209.4268378 69.93701807 208.66905951 69.9253667 207.88831824 69.91336226 C203.69590251 69.95982333 203.69590251 69.95982333 200.37991333 72.32765961 C199.22435067 74.67467371 198.95094899 76.22316386 198.91259766 78.83105469 C198.89265747 79.70358887 198.87271729 80.57612305 198.85217285 81.47509766 C198.84592896 82.38308105 198.83968506 83.29106445 198.83325195 84.2265625 C198.80829651 85.48847412 198.80829651 85.48847412 198.78283691 86.77587891 C198.72512265 89.910229 198.69280621 93.04500525 198.6574707 96.1796875 C198.5027832 106.6984375 198.5027832 106.6984375 198.3449707 117.4296875 C183.8249707 117.4296875 169.3049707 117.4296875 154.3449707 117.4296875 C154.0324707 96.1796875 154.0324707 96.1796875 153.95703125 89.48730469 C153.92474134 87.73370227 153.89136763 85.98011932 153.85668945 84.2265625 C153.85044556 83.3185791 153.84420166 82.4105957 153.83776855 81.47509766 C153.81782837 80.60256348 153.79788818 79.7300293 153.77734375 78.83105469 C153.76624069 78.07604675 153.75513763 77.32103882 153.74369812 76.54315186 C153.19894159 73.65565663 152.47492415 72.48692628 150.3449707 70.4296875 C147.59901496 70.03745664 145.25229158 69.90643293 142.50532532 69.94866943 C141.29479068 69.94354288 141.29479068 69.94354288 140.0598008 69.93831277 C137.34631314 69.93170609 134.6338072 69.95375536 131.92041016 69.97558594 C129.97910587 69.97671382 128.03779987 69.97608172 126.09649658 69.97381592 C120.81776835 69.97266551 115.53940169 69.99622767 110.26075768 70.02411175 C104.74743993 70.04907105 99.23411443 70.05146308 93.7207489 70.05621338 C83.27659987 70.06865926 72.83261778 70.10150271 62.38854235 70.14161134 C50.49996798 70.18627889 38.61138576 70.20830346 26.7227484 70.22839308 C2.26339652 70.2702339 -22.19580705 70.34061729 -46.6550293 70.4296875 C-46.78237559 62.63771116 -46.86960992 54.84600571 -46.9296875 47.05322266 C-46.95474689 44.40533418 -46.98880364 41.75751428 -47.03222656 39.10986328 C-47.09325208 35.29181946 -47.12132662 31.47469456 -47.14331055 27.65625 C-47.18202019 25.89627182 -47.18202019 25.89627182 -47.22151184 24.10073853 C-47.224085 16.46683102 -45.95311171 10.8217577 -41.6550293 4.4296875 C-39.3034668 2.17578125 -39.3034668 2.17578125 -37.0300293 0.8671875 C-35.89694336 0.18462891 -35.89694336 0.18462891 -34.7409668 -0.51171875 C-24.56753151 -5.6746419 -10.77113818 -1.62732252 0 0 Z " fill="#000000" transform="translate(79.655029296875,301.5703125)"/>
<path d="M0 0 C0.75200878 -0.00467997 1.50401757 -0.00935994 2.27881449 -0.01418173 C4.776123 -0.02606248 7.27287568 -0.01670223 9.77018738 -0.00723267 C11.56943581 -0.01130128 13.36868175 -0.01664479 15.16792297 -0.02316284 C20.03739278 -0.03680282 24.90667125 -0.03155281 29.77614427 -0.02202559 C34.87431739 -0.01441765 39.97247441 -0.02147721 45.07064819 -0.02618408 C53.62563514 -0.03163584 62.18054428 -0.02446262 70.73551941 -0.01016235 C80.6320345 0.00618913 90.52836442 0.00085521 100.42487508 -0.01564157 C108.92354286 -0.02924185 117.42215481 -0.03118404 125.92082995 -0.02332556 C130.99633141 -0.01864437 136.0717457 -0.01803699 141.14724159 -0.02793503 C145.9136908 -0.03658211 150.67990018 -0.03062432 155.44632339 -0.01325226 C157.19791579 -0.00927642 158.94952828 -0.01044012 160.70111275 -0.01704025 C163.08649866 -0.02520209 165.47110921 -0.01500023 167.85644531 0 C168.9032174 -0.01003825 168.9032174 -0.01003825 169.97113639 -0.02027929 C172.7859301 0.01420901 174.66515569 0.06603655 177.00165844 1.71726036 C179.63535263 5.66787978 179.24521157 9.82536475 179.25138855 14.37313843 C179.26971468 15.98122553 179.28928482 17.58929885 179.3099823 19.19735718 C179.33895387 21.72770505 179.36076378 24.25716464 179.36125183 26.78768921 C179.36459133 29.23363687 179.39916159 31.67754563 179.43888855 34.12313843 C179.428284 35.25149612 179.428284 35.25149612 179.41746521 36.40264893 C179.50044459 39.99514699 180.04115287 42.26489503 181.89494324 45.3555603 C186.84137173 48.47092401 191.50138244 48.09593819 197.23576355 48.04501343 C198.41541687 48.04979706 199.59507019 48.05458069 200.81047058 48.05950928 C203.30185786 48.0629082 205.79328974 48.05370658 208.28459167 48.0328064 C212.09745254 48.00604436 215.90736923 48.03255836 219.72013855 48.06454468 C222.14202005 48.06124058 224.56389971 48.05483437 226.98576355 48.04501343 C228.12545593 48.05513458 229.26514832 48.06525574 230.43937683 48.07568359 C235.22784605 48.0047933 238.21888044 47.93896068 242.33317566 45.36483765 C244.61941008 41.52712894 244.77033277 38.31513348 244.6771698 33.97470093 C244.68280441 33.17238037 244.68843903 32.37005981 244.69424438 31.54342651 C244.71065966 28.98866869 244.69518297 26.43564784 244.67326355 23.88095093 C244.65664439 21.32641711 244.64760533 18.77302725 244.66299438 16.21847534 C244.6722416 14.63245266 244.66321821 13.0461873 244.63336182 11.4604187 C244.65044406 8.0047599 244.93316369 5.68695483 246.67985344 2.67741489 C249.85033619 -0.31771823 252.32295146 -0.31803923 256.47187805 -0.24723816 C257.21553017 -0.25433255 257.9591823 -0.26142693 258.72536933 -0.2687363 C261.21910483 -0.28634856 263.71128819 -0.26819613 266.20500183 -0.25015259 C267.99230663 -0.25529047 269.77960636 -0.26257076 271.56689453 -0.27183533 C276.42480224 -0.29038232 281.28216248 -0.27738677 286.14004755 -0.25774503 C291.22696231 -0.24136919 296.31384208 -0.25017065 301.40077209 -0.25526428 C309.95035037 -0.2597889 318.49971016 -0.24389869 327.04924011 -0.2159729 C336.91946207 -0.18398081 346.78928858 -0.18391173 356.65953839 -0.20118767 C366.1625551 -0.21708554 375.6654275 -0.21029426 385.16843796 -0.19325066 C389.20728799 -0.18639587 393.24602181 -0.18739666 397.28487015 -0.19479561 C402.05055289 -0.20249019 406.81578931 -0.1902291 411.5813961 -0.1629467 C413.32519774 -0.15609262 415.0690413 -0.15593274 416.81284142 -0.16316223 C437.03721241 -0.23730849 437.03721241 -0.23730849 444.033144 6.13082027 C449.89566382 12.40214732 450.63115499 18.52715044 450.4818573 26.93173218 C449.83866494 32.91003593 447.52309687 36.20746249 443.1381073 40.15829468 C437.77534546 44.41843259 434.0595306 45.50722178 427.20091248 45.50120544 C425.99218979 45.50258011 424.7834671 45.50395477 423.53811646 45.50537109 C422.20198034 45.50183222 420.86584448 45.49819742 419.52970886 45.49447632 C418.1202698 45.49419419 416.71083058 45.49435268 415.3013916 45.49491882 C411.47735738 45.4952058 407.65335451 45.48932506 403.82932758 45.48234487 C399.83213777 45.47609486 395.83494724 45.47550622 391.8377533 45.47431946 C384.26948736 45.47121101 376.70123587 45.46300415 369.13297629 45.45296997 C360.51636264 45.44179376 351.89974831 45.43629458 343.28312922 45.43127453 C325.55899914 45.42082115 307.83488251 45.40323109 290.11076355 45.38095093 C289.8935968 47.26535889 289.8935968 47.26535889 289.67204285 49.18783569 C288.25940638 61.44562111 280.63905526 72.75721995 271.93107605 81.17001343 C268.51039293 83.85160158 264.98116941 85.86071944 261.11076355 87.81845093 C260.45865906 88.14853149 259.80655457 88.47861206 259.13468933 88.81869507 C249.50143193 93.4027059 240.16106676 93.68901009 229.6537323 93.68173218 C228.26044591 93.68562995 226.86716069 93.6899668 225.47387695 93.69471741 C222.56495805 93.70214041 219.65616058 93.70191754 216.74723816 93.69662476 C213.05253733 93.69084243 209.35833983 93.70774993 205.66372204 93.73096943 C202.78861676 93.74583253 199.91362911 93.74656145 197.0384922 93.7434597 C195.02473356 93.74421037 193.01099294 93.75798077 190.99728394 93.7721405 C174.80086204 93.69152173 161.10791437 89.45108043 149.17326355 78.13095093 C141.11254064 69.5430005 134.11076355 57.46428468 134.11076355 45.38095093 C133.38023238 45.38371631 132.64970121 45.38648169 131.89703274 45.38933086 C114.11097751 45.45562124 96.32494698 45.50524637 78.53879452 45.53638744 C69.93749489 45.55184781 61.33627778 45.57292144 52.73503113 45.60726929 C45.23705205 45.63719709 37.73913275 45.65653197 30.2410956 45.66321641 C26.27195208 45.66712295 22.30297956 45.67628648 18.33389091 45.6981411 C14.59517173 45.71855974 10.85669339 45.72477393 7.11792374 45.72027397 C5.0974749 45.72148799 3.07705207 45.73760192 1.05667114 45.75421143 C-7.15870961 45.726277 -13.22470708 45.11243702 -19.63923645 39.56845093 C-20.1909552 39.10825562 -20.74267395 38.6480603 -21.31111145 38.17391968 C-26.27126345 32.53849946 -26.41104066 26.98441594 -26.2368927 19.79891968 C-25.59787768 13.51646864 -23.4947696 10.02297347 -19.13923645 5.56845093 C-13.04885838 1.469158 -7.35781351 -0.0717054 0 0 Z " fill="#000000" transform="translate(43.88923645019531,381.6190490722656)"/>
<path d="M0 0 C5.85393028 5.69987949 7.25341115 12.36347825 7.375 20.3125 C7.0971797 25.63818511 6.4760731 30.93380154 5.85131836 36.22802734 C5.56086281 38.70144168 5.29009088 41.1764712 5.02148438 43.65234375 C4.84230013 45.23450615 4.66200155 46.81654284 4.48046875 48.3984375 C4.36000435 49.50159805 4.36000435 49.50159805 4.23710632 50.62704468 C3.39216504 57.61915761 3.39216504 57.61915761 1.375 60.3125 C-1.04271124 61.0337438 -3.13201912 61.46126672 -5.60961914 61.78730774 C-6.33678918 61.89760337 -7.06395922 62.00789899 -7.81316471 62.12153691 C-10.25994184 62.48809277 -12.70965495 62.82849096 -15.16015625 63.16918945 C-16.91110527 63.42601503 -18.66182328 63.6844198 -20.412323 63.94429016 C-25.17435591 64.64646679 -29.93938304 65.32594589 -34.70530319 66.00116372 C-39.68429975 66.71009387 -44.66044236 67.438527 -49.63696289 68.16459656 C-57.99485941 69.38110288 -66.35463637 70.58389619 -74.71582031 71.77758789 C-85.45959365 73.31150997 -96.19994642 74.86814877 -106.93940735 76.43194294 C-116.15770902 77.77402684 -125.37755428 79.10538949 -134.59763718 80.4351728 C-137.56851676 80.86415003 -140.53917089 81.29466255 -143.50979614 81.72539711 C-148.17096076 82.40058516 -152.83303711 83.0690904 -157.49591446 83.73234367 C-159.21115143 83.97729699 -160.92608208 84.22440591 -162.64068222 84.47377777 C-164.97312228 84.81260001 -167.30653249 85.14365116 -169.64038086 85.47261047 C-170.32577973 85.57395949 -171.01117861 85.67530851 -171.71734715 85.77972871 C-176.39659179 86.42670411 -176.39659179 86.42670411 -178.625 85.3125 C-171.98058897 77.84701156 -165.20865847 70.84560838 -157.625 64.3125 C-156.56587091 63.37951362 -155.50730773 62.44588455 -154.44921875 61.51171875 C-135.5279966 44.91754564 -114.92281661 30.969326 -92.625 19.3125 C-91.83174316 18.89613281 -91.03848633 18.47976562 -90.22119141 18.05078125 C-67.87181447 6.47771213 -24.04151294 -15.45525832 0 0 Z " fill="#000000" transform="translate(442.625,229.6875)"/>
<path d="M0 0 C10.34317698 5.21679832 20.19357347 11.12784992 29.81054688 17.57925415 C30.46506836 18.01689087 31.11958984 18.45452759 31.79394531 18.90542603 C45.29055248 28.0264858 57.85638875 38.53606608 69.81054688 49.57925415 C70.92808959 50.58291362 72.04664716 51.58544382 73.16601562 52.58706665 C74.33945075 53.64667679 75.51262988 54.7065705 76.68554688 55.76675415 C77.23364014 56.25410034 77.7817334 56.74144653 78.34643555 57.24356079 C78.86826416 57.71914429 79.39009277 58.19472778 79.92773438 58.6847229 C80.38776855 59.09875366 80.84780273 59.51278442 81.32177734 59.93936157 C83.45206488 62.28589181 85.0708285 64.93584943 86.81054688 67.57925415 C51.85223016 62.71155773 16.89802172 57.81274923 -18.03701782 52.78041267 C-25.43765093 51.71477095 -32.83921474 50.65654107 -40.24316406 49.61416626 C-46.85093409 48.6838677 -53.45676202 47.74099951 -60.06050873 46.78254193 C-63.5160415 46.28143324 -66.97219264 45.78651022 -70.43078613 45.30694008 C-74.23089015 44.77978755 -78.02657116 44.22447684 -81.82226562 43.66641235 C-82.95211884 43.51412674 -84.08197205 43.36184113 -85.24606323 43.2049408 C-86.27039459 43.04968933 -87.29472595 42.89443787 -88.35009766 42.73448181 C-89.24197784 42.60714818 -90.13385803 42.47981455 -91.05276489 42.34862232 C-93.18945312 41.57925415 -93.18945312 41.57925415 -94.45378113 39.73205853 C-95.57599281 36.44811918 -95.92017022 33.09700416 -96.29492188 29.66519165 C-96.38324783 28.89551056 -96.47157379 28.12582947 -96.56257629 27.33282471 C-96.74701097 25.70430205 -96.92747803 24.07532581 -97.10424805 22.44595337 C-97.37389879 19.98216157 -97.6626614 17.52113662 -97.953125 15.0597229 C-100.56846085 -7.95768731 -100.56846085 -7.95768731 -94.18945312 -16.42074585 C-71.62262312 -37.30416314 -23.07624361 -11.48416601 0 0 Z " fill="#000000" transform="translate(161.189453125,248.42074584960938)"/>
<path d="M0 0 C3.08410865 0.98428999 4.0459969 1.39579271 5.9375 3.9375 C6.52734375 6.90625 6.52734375 6.90625 6.875 10.4375 C8.72101902 24.89301988 14.38383265 34.75755927 25.515625 44.15234375 C33.07594271 49.72502954 41.04266834 51.64303948 50.1875 52.86254883 C55.47943602 53.61341521 55.47943602 53.61341521 57.9140625 55.3359375 C59.56304954 57.9164134 59.30895605 59.9658516 58.9375 62.9375 C57.1229403 65.68277483 55.82190515 65.96402118 52.56640625 66.7109375 C51.21189889 66.91785284 49.85634768 67.11801321 48.5 67.3125 C33.67005888 69.82485862 23.31918846 75.60074118 14.0625 87.6875 C9.32522028 94.88280222 6.99184905 102.93678199 6.5 111.5 C6.24642373 115.03854153 6.10156269 115.73593726 3.75 118.625 C0.25493249 120.2560315 -1.42880757 120.14873081 -5.0625 118.9375 C-7.09823613 115.8838958 -7.4986573 113.80748803 -7.99853516 110.23852539 C-10.01446463 95.86523038 -15.65658479 84.03319042 -27.51171875 75.08984375 C-36.25361449 69.50436248 -45.17989393 67.71666295 -55.375 66.5625 C-58.0625 65.9375 -58.0625 65.9375 -60.0625 62.9375 C-60.60177158 57.76049282 -60.60177158 57.76049282 -59.015625 55.33984375 C-56.11356811 53.2561669 -52.95344187 53.00808161 -49.5 52.5 C-35.06328662 50.04668115 -23.73344493 44.14185498 -15.0625 31.9375 C-10.79317259 24.9418358 -9.21591588 17.8031224 -8.22558594 9.77563477 C-7.7568137 6.37938774 -7.25248442 4.18846707 -5.1640625 1.4296875 C-3.0625 -0.0625 -3.0625 -0.0625 0 0 Z " fill="#000000" transform="translate(163.0625,79.0625)"/>
<path d="M0 0 C2.9375 0.4375 2.9375 0.4375 4.54296875 1.4765625 C6.655567 4.44721886 6.74779157 7.72104801 7.1875 11.25 C8.98413659 23.23056736 13.82061415 34.38515674 23.26171875 42.4140625 C32.55392204 48.89556629 40.53261809 51.73236198 51.8359375 52.84765625 C55.0878052 53.46608449 56.64264687 54.07596833 58.9375 56.4375 C59.67596154 62.34519231 59.67596154 62.34519231 57.8125 65.1015625 C55.1224965 67.01818999 52.77093862 67.01348443 49.5 67.3125 C35.46691633 69.07930723 24.824083 75.26093716 15.7578125 85.98046875 C10.15478706 93.54335073 8.23435997 101.52467538 7.01245117 110.6875 C6.26328759 115.96743504 6.26328759 115.96743504 4.5703125 118.41015625 C1.69226594 120.22098459 -0.7883926 119.84676343 -4.0625 119.4375 C-7.32204563 116.2699886 -7.56549938 113.21609057 -8 108.8125 C-9.6023331 96.2413501 -14.77285049 85.17413172 -24.76171875 77.06640625 C-32.79941262 71.37588275 -40.59568869 68.69899332 -50.27514648 67.54980469 C-53.64010526 67.1069337 -55.81643359 66.62022638 -58.56640625 64.578125 C-60.0625 62.4375 -60.0625 62.4375 -60 58.8125 C-59.0625 55.4375 -59.0625 55.4375 -56.0625 53.4375 C-53.88468106 53.08066621 -51.69419946 52.79853902 -49.5 52.5625 C-36.35584449 50.80453681 -25.4971018 45.29244307 -16.91796875 35.03515625 C-10.77499757 26.4349966 -8.39567348 17.99074734 -7.6796875 7.65234375 C-6.75612928 2.8416576 -4.87248038 0.69606863 0 0 Z " fill="#000000" transform="translate(343.0625,36.5625)"/>
<path d="M0 0 C6.23242887 4.73424886 9.55980357 10.67941072 12 18 C12.90892442 27.78956305 11.37888408 35.89828916 5.375 43.8125 C0.45600764 49.1204943 -6.83027932 52.37553869 -13.97265625 53.23828125 C-21.9547343 53.52175692 -29.53450982 51.26083907 -35.875 46.3125 C-41.12522474 41.35255211 -44.61316597 34.72383866 -45.203125 27.51953125 C-45.38315341 17.12289064 -43.36177064 10.57177312 -36.125 2.94921875 C-26.27964365 -6.08172393 -11.38029522 -6.79211282 0 0 Z " fill="#000000" transform="translate(284,190)"/>
</svg>
